AmstelvarA2-Roman_GRAD144.ufo
<glyph name="O" format="2">
  <advance width="1664"/>
  <unicode hex="004F"/>
  <anchor x="832.0" y="0" name="bottom"/>
  <anchor x="832.0" y="750.0" name="center"/>
  <anchor x="1064" y="0" name="ogonek"/>
  <anchor x="832.0" y="1500" name="top"/>
  <anchor x="1028" y="1500" name="topright"/>
  <anchor x="140.0" y="1500" name="tonos"/>
  <anchor x="169" y="755" name="_yu_dash"/>
  <outline>
    <contour>
      <point x="70" y="737" type="qcurve" smooth="yes"/>
      <point x="70" y="1068"/>
      <point x="505" y="1530"/>
      <point x="842" y="1530" type="qcurve" smooth="yes"/>
      <point x="1179" y="1530"/>
      <point x="1594" y="1097"/>
      <point x="1594" y="752" type="qcurve" smooth="yes"/>
      <point x="1594" y="423"/>
      <point x="1183" y="-41"/>
      <point x="846" y="-41" type="qcurve" smooth="yes"/>
      <point x="517" y="-41"/>
      <point x="70" y="396"/>
    </contour>
    <contour>
      <point x="372" y="768" type="qcurve" smooth="yes"/>
      <point x="372" y="499"/>
      <point x="633" y="142"/>
      <point x="842" y="142" type="qcurve" smooth="yes"/>
      <point x="1070" y="142"/>
      <point x="1292" y="460"/>
      <point x="1292" y="745" type="qcurve" smooth="yes"/>
      <point x="1292" y="998"/>
      <point x="1053" y="1339"/>
      <point x="842" y="1339" type="qcurve" smooth="yes"/>
      <point x="614" y="1339"/>
      <point x="372" y="1028"/>
    </contour>
  </outline>
</glyph>
<glyph name="acutecomb" format="2">
  <unicode hex="0301"/>
  <anchor x="0.0" y="1000" name="_top"/>
  <anchor x="0.0" y="1566.0" name="top"/>
  <outline>
    <contour>
      <point x="256" y="1465" type="qcurve" smooth="yes"/>
      <point x="256" y="1419"/>
      <point x="213" y="1364"/>
      <point x="167" y="1334" type="qcurve" smooth="yes"/>
      <point x="-118" y="1150" type="line"/>
      <point x="-197" y="1231" type="line"/>
      <point x="-18" y="1443" type="line" smooth="yes"/>
      <point x="19" y="1489"/>
      <point x="106" y="1558"/>
      <point x="148" y="1558" type="qcurve" smooth="yes"/>
      <point x="188" y="1558"/>
      <point x="256" y="1504"/>
    </contour>
  </outline>
</glyph>
<glyph name="dieresiscomb" format="2">
  <unicode hex="0308"/>
  <anchor x="0.0" y="1000" name="_top"/>
  <anchor x="0.0" y="1414.0" name="top"/>
  <anchor x="0.0" y="1000" name="_GRKtop"/>
  <outline>
    <contour>
      <point x="104" y="1225" type="qcurve" smooth="yes"/>
      <point x="104" y="1285"/>
      <point x="170" y="1350"/>
      <point x="231" y="1350" type="qcurve" smooth="yes"/>
      <point x="290" y="1350"/>
      <point x="359" y="1281"/>
      <point x="359" y="1225" type="qcurve" smooth="yes"/>
      <point x="359" y="1165"/>
      <point x="294" y="1100"/>
      <point x="231" y="1100" type="qcurve" smooth="yes"/>
      <point x="173" y="1100"/>
      <point x="104" y="1168"/>
    </contour>
    <contour>
      <point x="-359" y="1225" type="qcurve" smooth="yes"/>
      <point x="-359" y="1285"/>
      <point x="-293" y="1350"/>
      <point x="-231" y="1350" type="qcurve" smooth="yes"/>
      <point x="-173" y="1350"/>
      <point x="-104" y="1281"/>
      <point x="-104" y="1225" type="qcurve" smooth="yes"/>
      <point x="-104" y="1165"/>
      <point x="-169" y="1100"/>
      <point x="-231" y="1100" type="qcurve" smooth="yes"/>
      <point x="-290" y="1100"/>
      <point x="-359" y="1168"/>
    </contour>
  </outline>
</glyph>
<glyph name="Lambda" format="2">
  <advance width="1506"/>
  <unicode hex="039B"/>
  <outline>
    <contour>
      <point x="-25" y="0" type="line"/>
      <point x="-25" y="120" type="line"/>
      <point x="143" y="155" type="line"/>
      <point x="293" y="540" type="line"/>
      <point x="659" y="1508" type="line"/>
      <point x="831" y="1508" type="line"/>
      <point x="1183" y="600" type="line"/>
      <point x="1363" y="155" type="line"/>
      <point x="1531" y="120" type="line"/>
      <point x="1531" y="0" type="line"/>
      <point x="927" y="0" type="line"/>
      <point x="927" y="120" type="line"/>
      <point x="1077" y="151" type="line"/>
      <point x="945" y="499" type="line"/>
      <point x="734" y="1039" type="line"/>
      <point x="706" y="1122" type="line"/>
      <point x="696" y="1122" type="line"/>
      <point x="671" y="1039" type="line"/>
      <point x="477" y="503" type="line"/>
      <point x="354" y="150" type="line"/>
      <point x="521" y="120" type="line"/>
      <point x="521" y="0" type="line"/>
    </contour>
  </outline>
</glyph>
<glyph name="Sigma" format="2">
  <advance width="1188"/>
  <unicode hex="03A3"/>
  <outline>
    <contour>
      <point x="58" y="0" type="line"/>
      <point x="12" y="121" type="line"/>
      <point x="492" y="719" type="line"/>
      <point x="492" y="720" type="line"/>
      <point x="66" y="1354" type="line"/>
      <point x="66" y="1500" type="line"/>
      <point x="1137" y="1500" type="line"/>
      <point x="1137" y="1047" type="line"/>
      <point x="967" y="1047" type="line"/>
      <point x="930" y="1370" type="line"/>
      <point x="411" y="1370" type="line"/>
      <point x="403" y="1360" type="line"/>
      <point x="778" y="804" type="line"/>
      <point x="778" y="744" type="line"/>
      <point x="311" y="154" type="line"/>
      <point x="319" y="144" type="line"/>
      <point x="955" y="144" type="line"/>
      <point x="1036" y="418" type="line"/>
      <point x="1188" y="418" type="line"/>
      <point x="1137" y="0" type="line"/>
    </contour>
  </outline>
</glyph>
<glyph name="Phi" format="2">
  <advance width="1759"/>
  <unicode hex="03A6"/>
  <outline>
    <contour>
      <point x="603" y="-30" type="line"/>
      <point x="603" y="91" type="line"/>
      <point x="742" y="127" type="line"/>
      <point x="741" y="281" type="line"/>
      <point x="750" y="281" type="line"/>
      <point x="752" y="745" type="line"/>
      <point x="1012" y="745" type="line"/>
      <point x="1014" y="282" type="line"/>
      <point x="1023" y="281" type="line"/>
      <point x="1025" y="127" type="line"/>
      <point x="1171" y="90" type="line"/>
      <point x="1171" y="-30" type="line"/>
    </contour>
    <contour>
      <point x="752" y="745" type="line"/>
      <point x="750" y="1246" type="line"/>
      <point x="741" y="1247" type="line"/>
      <point x="738" y="1362" type="line"/>
      <point x="594" y="1396" type="line"/>
      <point x="594" y="1530" type="line"/>
      <point x="1170" y="1530" type="line"/>
      <point x="1170" y="1396" type="line"/>
      <point x="1025" y="1362" type="line"/>
      <point x="1023" y="1247" type="line"/>
      <point x="1014" y="1247" type="line"/>
      <point x="1012" y="745" type="line"/>
    </contour>
    <contour>
      <point x="879" y="215" type="qcurve" smooth="yes"/>
      <point x="420" y="215"/>
      <point x="44" y="490"/>
      <point x="44" y="729" type="qcurve"/>
      <point x="44" y="986"/>
      <point x="453" y="1303"/>
      <point x="879" y="1303" type="qcurve" smooth="yes"/>
      <point x="1338" y="1303"/>
      <point x="1714" y="1018"/>
      <point x="1714" y="771" type="qcurve" smooth="yes"/>
      <point x="1714" y="522"/>
      <point x="1306" y="215"/>
    </contour>
    <contour>
      <point x="884" y="353" type="qcurve"/>
      <point x="1202" y="355"/>
      <point x="1422" y="558"/>
      <point x="1422" y="754" type="qcurve" smooth="yes"/>
      <point x="1422" y="948"/>
      <point x="1193" y="1158"/>
      <point x="879" y="1159" type="qcurve"/>
      <point x="563" y="1158"/>
      <point x="339" y="941"/>
      <point x="339" y="737" type="qcurve" smooth="yes"/>
      <point x="339" y="551"/>
      <point x="572" y="354"/>
    </contour>
  </outline>
</glyph>
<glyph name="Omega" format="2">
  <advance width="1612"/>
  <unicode hex="03A9"/>
  <anchor x="163.0" y="1500" name="tonos"/>
  <outline>
    <contour>
      <point x="27" y="0" type="line"/>
      <point x="-17" y="378" type="line"/>
      <point x="135" y="378" type="line"/>
      <point x="196" y="146" type="line"/>
      <point x="476" y="141" type="line"/>
      <point x="487" y="225" type="line"/>
      <point x="310" y="291"/>
      <point x="58" y="634"/>
      <point x="58" y="882" type="qcurve" smooth="yes"/>
      <point x="58" y="1168"/>
      <point x="456" y="1532"/>
      <point x="806" y="1532" type="qcurve"/>
      <point x="1156" y="1532"/>
      <point x="1556" y="1168"/>
      <point x="1556" y="882" type="qcurve" smooth="yes"/>
      <point x="1556" y="644"/>
      <point x="1297" y="280"/>
      <point x="1125" y="225" type="qcurve"/>
      <point x="1136" y="141" type="line"/>
      <point x="1416" y="146" type="line"/>
      <point x="1477" y="378" type="line"/>
      <point x="1629" y="378" type="line"/>
      <point x="1585" y="0" type="line"/>
      <point x="940" y="0" type="line"/>
      <point x="905" y="351" type="line"/>
      <point x="1057" y="394"/>
      <point x="1256" y="672"/>
      <point x="1256" y="861" type="qcurve"/>
      <point x="1256" y="1085"/>
      <point x="1007" y="1341"/>
      <point x="806" y="1341" type="qcurve" smooth="yes"/>
      <point x="604.0" y="1341.0"/>
      <point x="358" y="1085"/>
      <point x="358" y="861" type="qcurve"/>
      <point x="358" y="672"/>
      <point x="555" y="394"/>
      <point x="707" y="351" type="qcurve"/>
      <point x="672" y="0" type="line"/>
    </contour>
  </outline>
</glyph>
<glyph name="alpha" format="2">
  <advance width="1263"/>
  <unicode hex="03B1"/>
  <anchor x="518" y="1000" name="GRKtop"/>
  <outline>
    <contour>
      <point x="484" y="-19" type="qcurve" smooth="yes"/>
      <point x="278" y="-19"/>
      <point x="51" y="243"/>
      <point x="51" y="485" type="qcurve" smooth="yes"/>
      <point x="51" y="724"/>
      <point x="297" y="1024"/>
      <point x="510" y="1024" type="qcurve" smooth="yes"/>
      <point x="694" y="1024"/>
      <point x="888" y="783"/>
      <point x="931" y="541" type="qcurve"/>
      <point x="972" y="541" type="line"/>
      <point x="1041" y="226"/>
      <point x="1104" y="149"/>
      <point x="1169" y="149" type="qcurve"/>
      <point x="1232" y="149" type="line"/>
      <point x="1232" y="30" type="line"/>
      <point x="1026" y="-11" type="line"/>
      <point x="902" y="-8"/>
      <point x="827" y="141"/>
      <point x="788" y="392" type="qcurve"/>
      <point x="763" y="392" type="line"/>
      <point x="717" y="669"/>
      <point x="616" y="875"/>
      <point x="520" y="875" type="qcurve"/>
      <point x="420" y="875"/>
      <point x="316" y="672"/>
      <point x="316" y="475" type="qcurve" smooth="yes"/>
      <point x="316" y="280"/>
      <point x="413" y="122"/>
      <point x="512" y="122" type="qcurve"/>
      <point x="593" y="122"/>
      <point x="718" y="303"/>
      <point x="799" y="595" type="qcurve"/>
      <point x="809" y="595" type="line"/>
      <point x="930" y="973" type="line"/>
      <point x="1195" y="1000" type="line"/>
      <point x="1219" y="960" type="line"/>
      <point x="941" y="396" type="line"/>
      <point x="900" y="396" type="line"/>
      <point x="831" y="201"/>
      <point x="640" y="-19"/>
    </contour>
  </outline>
</glyph>
<glyph name="delta" format="2">
  <advance width="1094"/>
  <unicode hex="03B4"/>
  <outline>
    <contour>
      <point x="542" y="-21" type="qcurve" smooth="yes"/>
      <point x="297" y="-21"/>
      <point x="31" y="231"/>
      <point x="31" y="430" type="qcurve" smooth="yes"/>
      <point x="31" y="595"/>
      <point x="217" y="857"/>
      <point x="402" y="911" type="qcurve"/>
      <point x="402" y="916" type="line"/>
      <point x="300" y="966"/>
      <point x="177" y="1110"/>
      <point x="177" y="1219" type="qcurve" smooth="yes"/>
      <point x="177" y="1361"/>
      <point x="406" y="1534"/>
      <point x="614" y="1534" type="qcurve" smooth="yes"/>
      <point x="748" y="1534"/>
      <point x="935" y="1479"/>
      <point x="988" y="1434" type="qcurve"/>
      <point x="969" y="1132" type="line"/>
      <point x="843" y="1132" type="line"/>
      <point x="794" y="1312" type="line"/>
      <point x="775" y="1346"/>
      <point x="679" y="1386"/>
      <point x="622" y="1386" type="qcurve" smooth="yes"/>
      <point x="523" y="1386"/>
      <point x="417" y="1313"/>
      <point x="417" y="1238" type="qcurve" smooth="yes"/>
      <point x="417" y="1182"/>
      <point x="499" y="1091"/>
      <point x="664" y="998" type="qcurve" smooth="yes"/>
      <point x="880" y="876"/>
      <point x="1062" y="615"/>
      <point x="1062" y="457" type="qcurve" smooth="yes"/>
      <point x="1062" y="262"/>
      <point x="792" y="-21"/>
    </contour>
    <contour>
      <point x="550" y="118" type="qcurve" smooth="yes"/>
      <point x="669" y="118"/>
      <point x="793" y="298"/>
      <point x="793" y="448" type="qcurve" smooth="yes"/>
      <point x="793" y="565"/>
      <point x="682" y="749"/>
      <point x="552" y="824" type="qcurve"/>
      <point x="428" y="769"/>
      <point x="304" y="579"/>
      <point x="304" y="436" type="qcurve" smooth="yes"/>
      <point x="304" y="278"/>
      <point x="443" y="118"/>
    </contour>
  </outline>
</glyph>
<glyph name="epsilon" format="2">
  <advance width="1020"/>
  <unicode hex="03B5"/>
  <anchor x="533" y="1000" name="GRKtop"/>
  <outline>
    <contour>
      <point x="500" y="-22" type="qcurve" smooth="yes"/>
      <point x="288" y="-22"/>
      <point x="51" y="135"/>
      <point x="51" y="266" type="qcurve" smooth="yes"/>
      <point x="51" y="343"/>
      <point x="138" y="466"/>
      <point x="232" y="507" type="qcurve"/>
      <point x="232" y="510" type="line"/>
      <point x="178" y="528"/>
      <point x="92" y="630"/>
      <point x="92" y="715" type="qcurve" smooth="yes"/>
      <point x="92" y="865"/>
      <point x="344" y="1022"/>
      <point x="556" y="1022" type="qcurve" smooth="yes"/>
      <point x="673" y="1022"/>
      <point x="868" y="970"/>
      <point x="914" y="931" type="qcurve"/>
      <point x="916" y="628" type="line"/>
      <point x="790" y="628" type="line"/>
      <point x="749" y="827" type="line"/>
      <point x="727" y="848"/>
      <point x="628" y="874"/>
      <point x="580" y="874" type="qcurve" smooth="yes"/>
      <point x="450" y="874"/>
      <point x="336" y="782"/>
      <point x="336" y="712" type="qcurve" smooth="yes"/>
      <point x="336" y="649"/>
      <point x="395" y="585"/>
      <point x="429" y="566" type="qcurve"/>
      <point x="681" y="599" type="line"/>
      <point x="704" y="560" type="line"/>
      <point x="647" y="389" type="line"/>
      <point x="422" y="429" type="line"/>
      <point x="377" y="408"/>
      <point x="322" y="337"/>
      <point x="322" y="287" type="qcurve" smooth="yes"/>
      <point x="322" y="206"/>
      <point x="451" y="134"/>
      <point x="546" y="134" type="qcurve" smooth="yes"/>
      <point x="653" y="134"/>
      <point x="865" y="214"/>
      <point x="917" y="258" type="qcurve"/>
      <point x="964" y="179" type="line"/>
      <point x="913" y="101"/>
      <point x="675" y="-22"/>
    </contour>
  </outline>
</glyph>
<glyph name="xi" format="2">
  <advance width="921"/>
  <unicode hex="03BE"/>
  <outline>
    <contour>
      <point x="706" y="-313" type="line"/>
      <point x="676" y="-143" type="line"/>
      <point x="665" y="-77"/>
      <point x="637" y="-39"/>
      <point x="587" y="-36" type="qcurve" smooth="yes"/>
      <point x="520" y="-32" type="line" smooth="yes"/>
      <point x="261" y="-17"/>
      <point x="34" y="232"/>
      <point x="34" y="415" type="qcurve" smooth="yes"/>
      <point x="34" y="535"/>
      <point x="165" y="742"/>
      <point x="314" y="811" type="qcurve"/>
      <point x="314" y="819" type="line"/>
      <point x="215" y="857"/>
      <point x="106" y="977"/>
      <point x="106" y="1068" type="qcurve"/>
      <point x="106" y="1142"/>
      <point x="206" y="1273"/>
      <point x="323" y="1313" type="qcurve"/>
      <point x="316" y="1330" type="line"/>
      <point x="129" y="1314" type="line"/>
      <point x="60" y="1368" type="line"/>
      <point x="83" y="1515" type="line"/>
      <point x="888" y="1513" type="line"/>
      <point x="888" y="1347" type="line"/>
      <point x="833" y="1347" type="line" smooth="yes"/>
      <point x="563" y="1347"/>
      <point x="343" y="1201"/>
      <point x="343" y="1083" type="qcurve"/>
      <point x="343" y="1007"/>
      <point x="410" y="902"/>
      <point x="479" y="874" type="qcurve"/>
      <point x="803" y="914" type="line"/>
      <point x="826" y="875" type="line"/>
      <point x="769" y="694" type="line"/>
      <point x="481" y="739" type="line"/>
      <point x="403" y="710"/>
      <point x="309" y="553"/>
      <point x="307" y="455" type="qcurve" smooth="yes"/>
      <point x="307" y="317"/>
      <point x="437" y="171"/>
      <point x="616" y="162" type="qcurve" smooth="yes"/>
      <point x="694" y="158" type="line" smooth="yes"/>
      <point x="777" y="154"/>
      <point x="848" y="82"/>
      <point x="849" y="26" type="qcurve"/>
      <point x="812" y="-313" type="line"/>
    </contour>
  </outline>
</glyph>
<glyph name="rho" format="2">
  <advance width="1116"/>
  <unicode hex="03C1"/>
  <outline>
    <contour>
      <point x="121" y="-480" type="line"/>
      <point x="378" y="-458" type="line"/>
      <point x="365" y="35" type="line"/>
      <point x="384" y="24"/>
      <point x="518" y="-12"/>
      <point x="617" y="-12" type="qcurve" smooth="yes"/>
      <point x="817" y="-12"/>
      <point x="1067" y="269"/>
      <point x="1067" y="514" type="qcurve" smooth="yes"/>
      <point x="1067" y="743"/>
      <point x="821" y="1022"/>
      <point x="590" y="1022" type="qcurve" smooth="yes"/>
      <point x="381" y="1022"/>
      <point x="107" y="736"/>
      <point x="106" y="443" type="qcurve"/>
      <point x="106" y="100" type="line"/>
      <point x="98" y="-441" type="line"/>
    </contour>
    <contour>
      <point x="586" y="111" type="qcurve" smooth="yes"/>
      <point x="512" y="111"/>
      <point x="386" y="179"/>
      <point x="362" y="238" type="qcurve"/>
      <point x="362" y="499" type="line" smooth="yes"/>
      <point x="362" y="712"/>
      <point x="482" y="874"/>
      <point x="578" y="874" type="qcurve" smooth="yes"/>
      <point x="691" y="874"/>
      <point x="796" y="676"/>
      <point x="796" y="499" type="qcurve" smooth="yes"/>
      <point x="796" y="307"/>
      <point x="683" y="111"/>
    </contour>
  </outline>
</glyph>
<glyph name="kaisymbol" format="2">
  <advance width="1185"/>
  <unicode hex="03D7"/>
  <outline>
    <contour>
      <point x="153" y="0" type="line"/>
      <point x="130" y="38" type="line"/>
      <point x="146" y="398" type="line"/>
      <point x="135" y="973" type="line"/>
      <point x="395" y="1000" type="line"/>
      <point x="418" y="961" type="line"/>
      <point x="400" y="407" type="line"/>
      <point x="413" y="27" type="line"/>
    </contour>
    <contour>
      <point x="306" y="146" type="line"/>
      <point x="306" y="345" type="line"/>
      <point x="701" y="863" type="line" smooth="yes"/>
      <point x="777" y="962"/>
      <point x="899" y="1010"/>
      <point x="1006" y="1010" type="qcurve"/>
      <point x="1030" y="970" type="line"/>
      <point x="1011" y="773" type="line"/>
      <point x="870" y="773"/>
      <point x="808" y="745"/>
      <point x="761" y="689" type="qcurve" smooth="yes"/>
    </contour>
    <contour>
      <point x="517" y="-528" type="qcurve" smooth="yes"/>
      <point x="321" y="-528"/>
      <point x="41" y="-363"/>
      <point x="-51" y="-221" type="qcurve"/>
      <point x="40" y="-146" type="line"/>
      <point x="112" y="-232"/>
      <point x="339" y="-356"/>
      <point x="517" y="-356" type="qcurve" smooth="yes"/>
      <point x="699" y="-356"/>
      <point x="910" y="-157"/>
      <point x="941" y="5" type="qcurve"/>
      <point x="875" y="-11" type="line"/>
      <point x="804" y="-8"/>
      <point x="724" y="37"/>
      <point x="684" y="109" type="qcurve" smooth="yes"/>
      <point x="487" y="461" type="line"/>
      <point x="634" y="619" type="line"/>
      <point x="859" y="255" type="line" smooth="yes"/>
      <point x="910" y="173"/>
      <point x="964" y="150"/>
      <point x="1007" y="149" type="qcurve" smooth="yes"/>
      <point x="1130" y="149" type="line"/>
      <point x="1141" y="-170"/>
      <point x="798" y="-528"/>
    </contour>
  </outline>
</glyph>
<glyph name="Cy-descendercomb.case" format="2">
  <advance width="1024"/>
  <anchor x="630" y="101" name="_cy_descender"/>
  <outline>
    <contour>
      <point x="372" y="128" type="line"/>
      <point x="660" y="121" type="line"/>
      <point x="670" y="-338" type="line"/>
      <point x="498" y="-338" type="line"/>
      <point x="429" y="0" type="line"/>
      <point x="372" y="0" type="line"/>
    </contour>
  </outline>
</glyph>
<glyph name="acutecomb.case" format="2">
  <anchor x="0.0" y="1500" name="_top"/>
  <anchor x="0.0" y="2086.0" name="top"/>
  <outline>
    <contour>
      <point x="297" y="2004" type="qcurve" smooth="yes"/>
      <point x="297" y="1957"/>
      <point x="248" y="1905"/>
      <point x="208" y="1878" type="qcurve" smooth="yes"/>
      <point x="-97" y="1674" type="line"/>
      <point x="-182" y="1768" type="line"/>
      <point x="28" y="1992" type="line" smooth="yes"/>
      <point x="63" y="2030"/>
      <point x="143" y="2099"/>
      <point x="185" y="2099" type="qcurve" smooth="yes"/>
      <point x="229" y="2099"/>
      <point x="297" y="2039"/>
    </contour>
  </outline>
</glyph>
<glyph name="brevecomb.case" format="2">
  <anchor x="0.0" y="1500" name="_top"/>
  <anchor x="0.0" y="1991.0" name="top"/>
  <outline>
    <contour>
      <point x="261" y="1991" type="qcurve"/>
      <point x="391" y="1906" type="line"/>
      <point x="352" y="1807"/>
      <point x="144" y="1630"/>
      <point x="0" y="1630" type="qcurve" smooth="yes"/>
      <point x="-128" y="1630"/>
      <point x="-345" y="1793"/>
      <point x="-393" y="1907" type="qcurve"/>
      <point x="-254" y="1992" type="line"/>
      <point x="-214" y="1933"/>
      <point x="-89" y="1843"/>
      <point x="0" y="1843" type="qcurve" smooth="yes"/>
      <point x="95" y="1843"/>
      <point x="221" y="1927"/>
    </contour>
  </outline>
</glyph>
<glyph name="commaaccentcomb.case" format="2">
  <anchor x="0.0" y="0" name="_bottom"/>
  <anchor x="0.0" y="-700.0" name="bottom"/>
  <outline>
    <contour>
      <point x="-177" y="-625" type="line"/>
      <point x="-137" y="-595"/>
      <point x="-34" y="-502"/>
      <point x="-8" y="-445" type="qcurve"/>
      <point x="-77" y="-444"/>
      <point x="-166" y="-361"/>
      <point x="-166" y="-295" type="qcurve" smooth="yes"/>
      <point x="-166" y="-230"/>
      <point x="-76" y="-135"/>
      <point x="-5" y="-135" type="qcurve" smooth="yes"/>
      <point x="61" y="-135"/>
      <point x="156" y="-220"/>
      <point x="156" y="-305" type="qcurve" smooth="yes"/>
      <point x="156" y="-441"/>
      <point x="-13" y="-641"/>
      <point x="-108" y="-700" type="qcurve"/>
    </contour>
  </outline>
</glyph>
<glyph name="diagonalbarL" format="2">
  <advance width="629"/>
  <outline>
    <contour>
      <point x="265" y="817" type="line"/>
      <point x="543" y="1046" type="line"/>
      <point x="643" y="884" type="line"/>
      <point x="360" y="680" type="line"/>
      <point x="83" y="452" type="line"/>
      <point x="-21" y="617" type="line"/>
    </contour>
  </outline>
</glyph>
<glyph name="macronbelowcomb.case" format="2">
  <anchor x="0.0" y="0" name="_bottom"/>
  <anchor x="0.0" y="-363" name="bottom"/>
  <outline>
    <contour>
      <point x="-306" y="-363" type="line"/>
      <point x="-306" y="-186" type="line"/>
      <point x="306" y="-186" type="line"/>
      <point x="306" y="-363" type="line"/>
    </contour>
  </outline>
</glyph>
<glyph name="yi-dieresiscomb" format="2">
  <anchor x="0.0" y="1000" name="_top"/>
  <outline>
    <contour>
      <point x="-291" y="1327" type="qcurve"/>
      <point x="-291" y="1394"/>
      <point x="-226" y="1470"/>
      <point x="-165" y="1470" type="qcurve"/>
      <point x="-108" y="1470"/>
      <point x="-39" y="1390"/>
      <point x="-39" y="1327" type="qcurve"/>
      <point x="-39" y="1259"/>
      <point x="-104" y="1182"/>
      <point x="-165" y="1182" type="qcurve"/>
      <point x="-222" y="1182"/>
      <point x="-291" y="1263"/>
    </contour>
    <contour>
      <point x="39" y="1327" type="qcurve"/>
      <point x="39" y="1394"/>
      <point x="104" y="1470"/>
      <point x="165" y="1470" type="qcurve"/>
      <point x="222" y="1470"/>
      <point x="291" y="1390"/>
      <point x="291" y="1327" type="qcurve"/>
      <point x="291" y="1259"/>
      <point x="226" y="1182"/>
      <point x="165" y="1182" type="qcurve"/>
      <point x="108" y="1182"/>
      <point x="39" y="1263"/>
    </contour>
  </outline>
</glyph>
